<svg width="126.950943" height="20.000000" viewBox="0 0 126.951 20" fill="none" xmlns="http://www.w3.org/2000/svg" xmlns:xlink="http://www.w3.org/1999/xlink">
	<desc>
			Created with Pixso.
	</desc>
	<defs/>
	<path id="3D Soft Curves" d="M1.78814e-06 18.6L2.62 18.6L2.62 13.72L5.24 13.72C7.82 13.72 9.94 11.68 9.94 9.02C9.94 6.44 7.86 4.4 5.22 4.4L1.78814e-06 4.4L1.78814e-06 18.6ZM2.62 11.44L2.62 6.72L4.84 6.72C6.16 6.72 7.22 7.68 7.22 9.02C7.22 10.38 6.16 11.44 4.84 11.44L2.62 11.44ZM11.888 18.6L14.488 18.6L14.488 8.4L11.888 8.4L11.888 18.6ZM13.168 3.98C12.308 3.98 11.668 4.58 11.668 5.44C11.668 6.3 12.308 6.92 13.168 6.92C13.988 6.92 14.668 6.3 14.668 5.44C14.668 4.58 13.988 3.98 13.168 3.98ZM17.4544 8.4L17.4544 18.6L20.0544 18.6L20.0544 13.34C20.0544 11.94 20.7744 10.48 22.3944 10.48C23.5944 10.48 24.4544 11.26 24.4544 12.72L24.4544 18.6L27.0544 18.6L27.0544 12.42C27.0544 9.72 25.4944 8.16 23.0944 8.16C21.5944 8.16 20.5944 8.74 19.9544 9.8L19.9544 8.4L17.4544 8.4ZM32.4567 18.6L32.4567 15.58L33.6767 14.18L36.5567 18.6L39.6167 18.6L35.5567 12.66L39.2567 8.4L36.1767 8.4L32.4567 12.62L32.4567 4.4L29.8567 4.4L29.8567 18.6L32.4567 18.6ZM56.6109 13.98C55.6709 15.42 54.3509 16.3 52.5309 16.3C49.9109 16.3 47.9509 14.22 47.9509 11.5C47.9509 8.78 49.8709 6.7 52.5309 6.7C54.2909 6.7 55.7309 7.66 56.5309 8.96L58.4909 7.32C57.3709 5.46 55.2909 4.16 52.5509 4.16C48.3309 4.16 45.2309 7.34 45.2309 11.5C45.2309 15.66 48.3909 18.84 52.5709 18.84C55.2309 18.84 57.3509 17.46 58.5909 15.54L56.6109 13.98ZM60.3031 15.84C60.3031 17.98 61.5831 18.84 63.2631 18.84C63.7231 18.84 64.1231 18.76 64.4831 18.62L64.4831 16.42C64.2231 16.52 63.9831 16.54 63.8031 16.54C63.0231 16.54 62.9031 16.02 62.9031 15.38L62.9031 4.4L60.3031 4.4L60.3031 15.84ZM70.8244 8.16C67.7244 8.16 65.4244 10.5 65.4244 13.5C65.4244 16.5 67.7244 18.84 70.8244 18.84C73.9644 18.84 76.2244 16.5 76.2244 13.5C76.2244 10.5 73.9644 8.16 70.8244 8.16ZM70.8244 10.52C72.4244 10.52 73.5844 11.82 73.5844 13.5C73.5844 15.18 72.4244 16.48 70.8244 16.48C69.2244 16.48 68.0644 15.18 68.0644 13.5C68.0644 11.82 69.2244 10.52 70.8244 10.52ZM78.2514 8.4L78.2514 14.58C78.2514 17.28 79.8114 18.84 82.2114 18.84C83.7114 18.84 84.7114 18.26 85.3514 17.2L85.3514 18.6L87.8514 18.6L87.8514 8.4L85.2514 8.4L85.2514 13.66C85.2514 15.04 84.5314 16.52 82.9114 16.52C81.7114 16.52 80.8514 15.74 80.8514 14.28L80.8514 8.4L78.2514 8.4ZM95.3737 16.52C93.9337 16.52 92.6738 15.3 92.6738 13.48C92.6738 11.68 93.9337 10.48 95.3737 10.48C96.8737 10.48 98.0737 11.64 98.0737 13.48C98.0737 15.32 96.8737 16.52 95.3737 16.52ZM98.1338 18.6L100.574 18.6L100.574 4.4L97.9738 4.4L97.9738 9.7C97.3538 8.74 96.0938 8.16 94.8737 8.16C92.0938 8.16 90.0538 10.44 90.0538 13.5C90.0538 16.64 92.1938 18.84 94.8338 18.84C95.9738 18.84 97.4938 18.26 98.1338 17.14L98.1338 18.6ZM106.951 20L126.951 20L126.951 0L106.951 0L106.951 20Z" fill="#000000" fill-opacity="1.000000" fill-rule="evenodd"/>
</svg>
