<svg width="13.750153" height="18.750214" viewBox="0 0 13.7502 18.7502" fill="none" xmlns="http://www.w3.org/2000/svg" xmlns:xlink="http://www.w3.org/1999/xlink">
	<desc>
			Created with Pixso.
	</desc>
	<defs/>
	<path id="Vector" d="M13.582 9.17654L4.83203 18.5515C4.73926 18.651 4.61658 18.7175 4.4826 18.7409C4.34863 18.7643 4.21069 18.7433 4.08969 18.6812C3.96869 18.6192 3.87125 18.5193 3.81216 18.3968C3.75305 18.2744 3.7355 18.1359 3.76218 18.0026L4.90796 12.2737L0.405609 10.5854C0.309387 10.5493 0.223541 10.4901 0.15567 10.4129C0.0878296 10.3357 0.0400391 10.243 0.0165405 10.143C-0.00695801 10.0429 -0.00540161 9.93863 0.0210266 9.83932C0.0474854 9.74002 0.0979919 9.64877 0.168121 9.57367L8.91812 0.198669C9.01089 0.0992126 9.13358 0.0327454 9.26758 0.00933838C9.40155 -0.0140686 9.53949 0.00686646 9.66049 0.0689697C9.78149 0.131042 9.87897 0.230927 9.93805 0.353424C9.99716 0.475922 10.0147 0.614349 9.98798 0.747711L8.84219 6.47662L13.3445 8.16492C13.4408 8.20099 13.5266 8.26022 13.5945 8.3374C13.6623 8.41455 13.7101 8.50726 13.7336 8.6073C13.7571 8.70737 13.7556 8.81165 13.7291 8.91095C13.7027 9.01025 13.6522 9.1015 13.582 9.17664L13.582 9.17654Z" fill="#000000" fill-opacity="1.000000" fill-rule="nonzero"/>
</svg>
