<svg width="149.977417" height="28.000000" viewBox="0 0 149.977 28" fill="none" xmlns="http://www.w3.org/2000/svg" xmlns:xlink="http://www.w3.org/1999/xlink">
	<desc>
			Created with Pixso.
	</desc>
	<defs/>
	<path id="Featured ✨" d="M1.09673e-05 6.16002L1.09673e-05 26.04L3.69601 26.04L3.69601 18.032L10.696 18.032L10.696 14.812L3.69601 14.812L3.69601 9.40802L12.04 9.40802L12.04 6.16002L1.09673e-05 6.16002ZM20.617 11.424C16.361 11.424 13.309 14.756 13.309 18.928C13.309 23.1 16.417 26.376 21.121 26.376C23.473 26.376 25.293 25.704 27.057 24.024L25.041 21.616C24.173 22.512 22.941 23.212 21.289 23.212C19.189 23.212 17.313 22.036 17.089 19.796L27.113 19.796C27.225 19.264 27.337 18.676 27.337 18.032C27.337 14.252 24.677 11.424 20.617 11.424ZM20.589 14.476C22.297 14.476 23.641 15.54 23.781 17.304L23.781 17.332L17.089 17.332C17.397 15.54 18.797 14.476 20.589 14.476ZM37.9857 17.136L33.8697 17.948C30.8457 18.536 29.2217 20.02 29.2217 22.176C29.2217 24.64 31.2097 26.376 33.9257 26.376C35.8297 26.376 37.3417 25.536 38.1537 24.108L38.1537 26.04L41.5137 26.04L41.5137 16.996C41.5137 13.524 39.2177 11.424 35.3817 11.424C32.8057 11.424 30.7897 12.432 29.4457 14.028L31.3497 16.352C32.2457 15.316 33.5617 14.588 35.1297 14.588C36.8377 14.588 37.9857 15.372 37.9857 16.968L37.9857 17.136ZM34.6537 23.576C33.5057 23.576 32.7217 22.932 32.7217 21.952C32.7217 21.056 33.3937 20.496 34.7097 20.244L38.0417 19.6L38.0417 20.216C38.0417 22.036 36.6137 23.576 34.6537 23.576ZM43.7054 11.76L43.7054 14.672L45.7214 14.672L45.7214 21.56C45.7214 24.668 47.4854 26.376 50.3974 26.376C51.6014 26.376 52.4694 26.152 53.1134 25.816L53.1134 22.624C52.4694 23.044 51.7694 23.1 51.3494 23.1C50.0334 23.1 49.3614 22.4 49.3614 21.028L49.3614 14.672L52.7494 14.672L52.7494 11.76L49.3614 11.76L49.3614 7.86802L45.8334 7.86802L45.8334 11.76L43.7054 11.76ZM55.3293 11.76L55.3293 20.412C55.3293 24.192 57.5133 26.376 60.8733 26.376C62.9733 26.376 64.3733 25.564 65.2693 24.08L65.2693 26.04L68.7693 26.04L68.7693 11.76L65.1293 11.76L65.1293 19.124C65.1293 21.056 64.1213 23.128 61.8533 23.128C60.1733 23.128 58.9693 22.036 58.9693 19.992L58.9693 11.76L55.3293 11.76ZM76.5006 11.76L72.9166 11.76L72.9166 26.04L76.5566 26.04L76.5566 19.768C76.5566 16.828 78.0966 14.924 80.6446 14.924C80.9806 14.924 81.2326 14.952 81.4286 15.036L81.4286 11.536C81.2326 11.452 80.8966 11.424 80.5606 11.424C78.6566 11.424 77.2006 12.488 76.5006 14.252L76.5006 11.76ZM89.6326 11.424C85.3766 11.424 82.3246 14.756 82.3246 18.928C82.3246 23.1 85.4326 26.376 90.1366 26.376C92.4886 26.376 94.3086 25.704 96.0726 24.024L94.0566 21.616C93.1886 22.512 91.9566 23.212 90.3046 23.212C88.2046 23.212 86.3286 22.036 86.1046 19.796L96.1286 19.796C96.2406 19.264 96.3526 18.676 96.3526 18.032C96.3526 14.252 93.6926 11.424 89.6326 11.424ZM89.6046 14.476C91.3126 14.476 92.6566 15.54 92.7966 17.304L92.7966 17.332L86.1046 17.332C86.4126 15.54 87.8126 14.476 89.6046 14.476ZM105.769 23.128C103.753 23.128 101.989 21.42 101.989 18.872C101.989 16.352 103.753 14.672 105.769 14.672C107.869 14.672 109.549 16.296 109.549 18.872C109.549 21.448 107.869 23.128 105.769 23.128ZM109.633 26.04L113.049 26.04L113.049 6.16002L109.409 6.16002L109.409 13.58C108.541 12.236 106.777 11.424 105.069 11.424C101.177 11.424 98.3214 14.616 98.3214 18.9C98.3214 23.296 101.317 26.376 105.013 26.376C106.609 26.376 108.737 25.564 109.633 23.996L109.633 26.04ZM121.977 28L149.977 28L149.977 2.28882e-05L121.977 2.28882e-05L121.977 28Z" fill="#000000" fill-opacity="1.000000" fill-rule="evenodd"/>
</svg>
