<svg width="24.000000" height="24.000000" viewBox="0 0 24 24" fill="none" xmlns="http://www.w3.org/2000/svg" xmlns:xlink="http://www.w3.org/1999/xlink">
	<desc>
			Created with Pixso.
	</desc>
	<defs>
		<clipPath id="clip1_66">
			<rect id="Frame" width="24.000000" height="24.000000" fill="white" fill-opacity="0"/>
		</clipPath>
	</defs>
	<rect id="Frame" width="24.000000" height="24.000000" fill="#FFFFFF" fill-opacity="0"/>
	<g clip-path="url(#clip1_66)">
		<path id="Vector" d="M21.7947 20.2046L17.9812 16.3911C19.387 14.5807 20.05 12.3027 19.8352 10.0207C19.6205 7.73871 18.5441 5.62436 16.8252 4.10806C15.1064 2.5918 12.8742 1.78757 10.5833 1.85916C8.29236 1.93076 6.11481 2.87277 4.49396 4.49341C2.87314 6.11404 1.93088 8.29147 1.85901 10.5824C1.78717 12.8734 2.59109 15.1056 4.10718 16.8246C5.62326 18.5436 7.73749 19.6203 10.0194 19.8353C12.3014 20.0503 14.5795 19.3876 16.39 17.982L20.2037 21.7956C20.3079 21.9014 20.4319 21.9856 20.5688 22.0433C20.7056 22.101 20.8525 22.131 21.0011 22.1316C21.1496 22.1322 21.2967 22.1034 21.4341 22.0468C21.5714 21.9903 21.6961 21.9071 21.8011 21.8021C21.9062 21.6971 21.9893 21.5723 22.0459 21.435C22.1024 21.2976 22.1312 21.1505 22.1306 21.002C22.13 20.8535 22.1 20.7066 22.0424 20.5697C21.9847 20.4329 21.9005 20.3088 21.7946 20.2046L21.7947 20.2046ZM4.12473 10.875C4.12473 9.53998 4.5206 8.23492 5.2623 7.12491C6.004 6.01486 7.0582 5.14969 8.29163 4.63882C9.52502 4.12793 10.8822 3.99423 12.1916 4.2547C13.5009 4.51514 14.7037 5.15802 15.6477 6.10202C16.5917 7.04602 17.2346 8.24878 17.495 9.55814C17.7555 10.8675 17.6218 12.2247 17.1109 13.4581C16.6 14.6915 15.7349 15.7457 14.6248 16.4874C13.5148 17.2291 12.2097 17.625 10.8747 17.625C9.08514 17.623 7.36942 16.9112 6.10397 15.6458C4.83853 14.3803 4.12674 12.6646 4.12473 10.875Z" fill="#8E8E93" fill-opacity="1.000000" fill-rule="nonzero"/>
	</g>
</svg>
