<svg width="78.021545" height="22.847992" viewBox="0 0 78.0215 22.848" fill="none" xmlns="http://www.w3.org/2000/svg" xmlns:xlink="http://www.w3.org/1999/xlink">
	<desc>
			Created with Pixso.
	</desc>
	<defs/>
	<path id="Rolling" d="M3.696 17.736L3.696 11.568L6.408 11.568L9.12 17.736L13.128 17.736L9.864 10.92C11.76 10.056 13.008 8.304 13.008 6.096C13.008 2.88 10.632 0.648003 7.272 0.648003L-4.29153e-06 0.648003L-4.29153e-06 17.736L3.696 17.736ZM3.696 3.84L6.696 3.84C8.232 3.84 9.192 4.752 9.192 6.12C9.192 7.536 8.184 8.52 6.648 8.52L3.696 8.52L3.696 3.84ZM20.9608 5.16C17.1208 5.16 14.3608 7.944 14.3608 11.592C14.3608 15.216 17.1208 18.048 20.9608 18.048C24.8008 18.048 27.5608 15.216 27.5608 11.592C27.5608 7.944 24.8008 5.16 20.9608 5.16ZM20.9608 8.4C22.6168 8.4 23.8648 9.672 23.8648 11.592C23.8648 13.512 22.6168 14.808 20.9608 14.808C19.3048 14.808 18.0568 13.512 18.0568 11.592C18.0568 9.672 19.3048 8.4 20.9608 8.4ZM29.8012 14.256C29.8012 16.848 31.3132 18.048 33.6172 18.048C34.3612 18.048 34.8652 17.928 35.3212 17.736L35.3212 14.736C35.0092 14.856 34.7212 14.88 34.5052 14.88C33.5692 14.88 33.4492 14.256 33.4492 13.584L33.4492 0.648003L29.8012 0.648003L29.8012 14.256ZM37.2075 14.256C37.2075 16.848 38.7195 18.048 41.0235 18.048C41.7675 18.048 42.2715 17.928 42.7275 17.736L42.7275 14.736C42.4155 14.856 42.1275 14.88 41.9115 14.88C40.9755 14.88 40.8555 14.256 40.8555 13.584L40.8555 0.648003L37.2075 0.648003L37.2075 14.256ZM44.7577 17.76L48.4057 17.76L48.4057 5.448L44.7577 5.448L44.7577 17.76ZM46.5337 3.8147e-06C45.4057 3.8147e-06 44.5177 0.816004 44.5177 1.944C44.5177 3.072 45.4057 3.912 46.5337 3.912C47.6617 3.912 48.5737 3.072 48.5737 1.944C48.5737 0.816004 47.6617 3.8147e-06 46.5337 3.8147e-06ZM51.7187 5.448L51.7187 17.76L55.3667 17.76L55.3667 11.352C55.3667 9.744 56.2067 8.376 57.7907 8.376C59.1347 8.376 59.9987 9.216 59.9987 10.824L59.9987 17.76L63.6467 17.76L63.6467 10.272C63.6467 7.08 61.8227 5.16 58.8707 5.16C57.2147 5.16 56.0147 5.784 55.2227 7.032L55.2227 5.448L51.7187 5.448ZM65.5896 19.512C65.5896 21.528 68.0136 22.848 71.5896 22.848C75.5016 22.848 78.0216 21.12 78.0216 18.888C78.0216 16.752 76.2936 15.24 73.7736 15.24L70.7016 15.24C70.1976 15.24 69.7176 15.072 69.7176 14.616C69.7176 14.328 69.9576 14.088 70.4616 13.896C70.6776 13.92 70.9176 13.92 71.1336 13.92C74.0856 13.92 76.3656 12.024 76.3656 9.528C76.3656 9.048 76.2696 8.592 76.0776 8.16L77.9016 8.16L77.9016 5.448L72.8616 5.448C72.3096 5.256 71.7576 5.16 71.1816 5.16C68.2296 5.16 65.9976 7.104 65.9976 9.528C65.9976 11.064 66.8376 12.336 68.1096 13.128C67.1736 13.632 66.5496 14.4 66.5496 15.264C66.5496 16.032 66.8376 16.608 67.5336 17.088C66.4056 17.544 65.5896 18.336 65.5896 19.512ZM71.1816 7.8C72.3096 7.8 73.1496 8.544 73.1496 9.528C73.1496 10.488 72.3096 11.28 71.1816 11.28C70.0536 11.28 69.2136 10.488 69.2136 9.528C69.2136 8.544 70.0536 7.8 71.1816 7.8ZM69.1176 18.96C69.1176 18.48 69.4776 18.168 69.8616 17.976L73.1256 17.976C73.8216 17.976 74.4696 18.288 74.4696 18.936C74.4696 19.68 73.5336 20.112 71.6136 20.112C70.1016 20.112 69.1176 19.704 69.1176 18.96Z" fill="#000000" fill-opacity="1.000000" fill-rule="evenodd"/>
</svg>
