<svg width="205.813354" height="28.000000" viewBox="0 0 205.813 28" fill="none" xmlns="http://www.w3.org/2000/svg" xmlns:xlink="http://www.w3.org/1999/xlink">
	<desc>
			Created with Pixso.
	</desc>
	<defs/>
	<path id="Live auctions 🔥" d="M1.09673e-05 26.04L12.012 26.04L12.012 22.764L3.69601 22.764L3.69601 6.15999L1.09673e-05 6.15999L1.09673e-05 26.04ZM14.4283 26.04L18.0683 26.04L18.0683 11.76L14.4283 11.76L14.4283 26.04ZM16.2203 5.57199C15.0163 5.57199 14.1203 6.41199 14.1203 7.61599C14.1203 8.81999 15.0163 9.68799 16.2203 9.68799C17.3683 9.68799 18.3203 8.81999 18.3203 7.61599C18.3203 6.41199 17.3683 5.57199 16.2203 5.57199ZM20.1773 11.76L25.9733 26.04L29.2493 26.04L35.0453 11.76L31.2933 11.76L27.6253 21.588L23.9293 11.76L20.1773 11.76ZM43.1482 11.424C38.8922 11.424 35.8402 14.756 35.8402 18.928C35.8402 23.1 38.9482 26.376 43.6522 26.376C46.0042 26.376 47.8242 25.704 49.5882 24.024L47.5722 21.616C46.7042 22.512 45.4722 23.212 43.8202 23.212C41.7202 23.212 39.8442 22.036 39.6202 19.796L49.6442 19.796C49.7562 19.264 49.8682 18.676 49.8682 18.032C49.8682 14.252 47.2082 11.424 43.1482 11.424ZM43.1202 14.476C44.8282 14.476 46.1722 15.54 46.3122 17.304L46.3122 17.332L39.6202 17.332C39.9282 15.54 41.3282 14.476 43.1202 14.476ZM67.3803 17.136L63.2643 17.948C60.2403 18.536 58.6163 20.02 58.6163 22.176C58.6163 24.64 60.6043 26.376 63.3203 26.376C65.2243 26.376 66.7363 25.536 67.5483 24.108L67.5483 26.04L70.9083 26.04L70.9083 16.996C70.9083 13.524 68.6123 11.424 64.7763 11.424C62.2003 11.424 60.1843 12.432 58.8403 14.028L60.7443 16.352C61.6403 15.316 62.9563 14.588 64.5243 14.588C66.2323 14.588 67.3803 15.372 67.3803 16.968L67.3803 17.136ZM64.0483 23.576C62.9003 23.576 62.1163 22.932 62.1163 21.952C62.1163 21.056 62.7883 20.496 64.1043 20.244L67.4363 19.6L67.4363 20.216C67.4363 22.036 66.0083 23.576 64.0483 23.576ZM74.552 11.76L74.552 20.412C74.552 24.192 76.736 26.376 80.096 26.376C82.196 26.376 83.596 25.564 84.492 24.08L84.492 26.04L87.992 26.04L87.992 11.76L84.352 11.76L84.352 19.124C84.352 21.056 83.344 23.128 81.076 23.128C79.396 23.128 78.192 22.036 78.192 19.992L78.192 11.76L74.552 11.76ZM102.219 21.196C101.351 22.344 100.203 23.1 98.6353 23.1C96.3673 23.1 94.7153 21.28 94.7153 18.9C94.7153 16.52 96.3673 14.7 98.6073 14.7C100.147 14.7 101.267 15.484 102.051 16.744L104.459 14.56C103.115 12.544 101.155 11.424 98.5793 11.424C94.2393 11.424 91.0193 14.7 91.0193 18.872C91.0193 23.128 94.2393 26.376 98.5793 26.376C101.155 26.376 103.255 25.228 104.571 23.352L102.219 21.196ZM105.639 11.76L105.639 14.672L107.655 14.672L107.655 21.56C107.655 24.668 109.419 26.376 112.331 26.376C113.535 26.376 114.403 26.152 115.047 25.816L115.047 22.624C114.403 23.044 113.703 23.1 113.283 23.1C111.967 23.1 111.295 22.4 111.295 21.028L111.295 14.672L114.683 14.672L114.683 11.76L111.295 11.76L111.295 7.86799L107.767 7.86799L107.767 11.76L105.639 11.76ZM117.596 26.04L121.236 26.04L121.236 11.76L117.596 11.76L117.596 26.04ZM119.388 5.57199C118.184 5.57199 117.288 6.41199 117.288 7.61599C117.288 8.81999 118.184 9.68799 119.388 9.68799C120.536 9.68799 121.488 8.81999 121.488 7.61599C121.488 6.41199 120.536 5.57199 119.388 5.57199ZM131.857 11.424C127.517 11.424 124.297 14.7 124.297 18.9C124.297 23.1 127.517 26.376 131.857 26.376C136.253 26.376 139.417 23.1 139.417 18.9C139.417 14.7 136.253 11.424 131.857 11.424ZM131.857 14.728C134.097 14.728 135.721 16.548 135.721 18.9C135.721 21.252 134.097 23.072 131.857 23.072C129.617 23.072 127.993 21.252 127.993 18.9C127.993 16.548 129.617 14.728 131.857 14.728ZM142.479 11.76L142.479 26.04L146.119 26.04L146.119 18.676C146.119 16.716 147.127 14.672 149.395 14.672C151.075 14.672 152.279 15.764 152.279 17.808L152.279 26.04L155.919 26.04L155.919 17.388C155.919 13.608 153.735 11.424 150.375 11.424C148.275 11.424 146.875 12.236 145.979 13.72L145.979 11.76L142.479 11.76ZM164.406 26.376C167.71 26.376 169.978 24.528 169.978 22.12C169.978 19.516 168.102 18.564 165.386 17.584C163.174 16.8 162.418 16.408 162.418 15.652C162.418 14.868 163.286 14.336 164.434 14.336C165.778 14.336 166.674 15.036 167.262 16.016L169.698 14.252C168.774 12.544 166.842 11.424 164.49 11.424C161.41 11.424 159.002 13.216 159.002 15.68C159.002 18.032 160.57 19.18 163.482 20.16C165.806 20.944 166.562 21.308 166.562 22.204C166.562 22.96 165.75 23.436 164.406 23.436C162.866 23.436 161.774 22.568 160.99 21.336L158.526 23.156C159.618 25.172 161.83 26.376 164.406 26.376ZM177.813 28L205.813 28L205.813 -7.62939e-06L177.813 -7.62939e-06L177.813 28Z" fill="#000000" fill-opacity="1.000000" fill-rule="evenodd"/>
</svg>
